<?xml version="1.0" standalone="no"?>
<!DOCTYPE svg PUBLIC "-//W3C//DTD SVG 20010904//EN"
 "http://www.w3.org/TR/2001/REC-SVG-20010904/DTD/svg10.dtd">
<svg version="1.0" xmlns="http://www.w3.org/2000/svg"
 width="256.000000pt" height="256.000000pt" viewBox="0 0 256.000000 256.000000"
 preserveAspectRatio="xMidYMid meet">
<metadata>
Created by potrace 1.11, written by Peter Selinger 2001-2013
</metadata>
<g transform="translate(0.000000,256.000000) scale(0.100000,-0.100000)"
fill="#000000" stroke="none">
<path d="M660 2284 c-199 -33 -356 -128 -493 -295 -20 -25 -37 -49 -37 -53 0
-5 -8 -20 -18 -34 -76 -111 -120 -336 -98 -497 40 -281 231 -522 493 -623 441
-170 930 89 1039 550 39 162 20 358 -48 506 -53 115 -150 235 -249 308 -82 60
-216 119 -320 139 -56 12 -200 11 -269 -1z"/>
<path d="M1723 1833 c-4 -1 -33 -4 -63 -8 -76 -8 -82 -13 -69 -56 39 -130 49
-302 23 -425 -40 -189 -132 -340 -297 -490 -34 -30 -139 -93 -190 -114 -66
-27 -67 -31 -9 -118 154 -234 412 -367 689 -356 411 18 743 362 744 773 1 229
-73 406 -235 566 -79 79 -105 98 -196 142 -112 55 -208 81 -322 86 -37 1 -70
2 -75 0z"/>
</g>
</svg>
