<?xml version="1.0" standalone="no"?>
<!DOCTYPE svg PUBLIC "-//W3C//DTD SVG 20010904//EN"
 "http://www.w3.org/TR/2001/REC-SVG-20010904/DTD/svg10.dtd">
<svg version="1.0" xmlns="http://www.w3.org/2000/svg"
 width="260.000000pt" height="260.000000pt" viewBox="0 0 260.000000 260.000000"
 preserveAspectRatio="xMidYMid meet">
<metadata>
Created by potrace 1.11, written by Peter Selinger 2001-2013
</metadata>
<g transform="translate(0.000000,260.000000) scale(0.100000,-0.100000)"
fill="#000000" stroke="none">
<path d="M635 2300 c-282 -73 -489 -262 -579 -532 -25 -75 -28 -97 -31 -218
-4 -124 7 -193 50 -307 109 -288 391 -488 704 -498 97 -3 222 14 264 37 12 6
24 11 27 11 28 -2 156 67 224 121 295 237 383 628 217 970 -92 191 -267 336
-486 406 -97 31 -290 36 -390 10z"/>
<path d="M1671 1849 c-29 -4 -57 -11 -61 -16 -5 -4 1 -42 11 -83 28 -106 32
-271 9 -382 -43 -206 -164 -398 -324 -512 -65 -46 -195 -116 -216 -116 -17 0
-8 -18 44 -97 161 -242 401 -368 686 -359 209 7 391 87 536 238 140 145 213
314 219 513 8 209 -50 380 -182 542 -90 111 -268 222 -413 258 -73 18 -228 26
-309 14z"/>
</g>
</svg>
